<?xml version="1.0" encoding="utf-8"?>
<!-- Generator: Adobe Illustrator 16.0.0, SVG Export Plug-In . SVG Version: 6.00 Build 0)  -->
<!DOCTYPE svg PUBLIC "-//W3C//DTD SVG 1.1//EN" "http://www.w3.org/Graphics/SVG/1.1/DTD/svg11.dtd">
<svg version="1.1" id="katman_1" xmlns="http://www.w3.org/2000/svg" xmlns:xlink="http://www.w3.org/1999/xlink" x="0px" y="0px"
	 width="499.999px" height="271.594px" viewBox="230.267 155.375 499.999 271.594"
	 enable-background="new 230.267 155.375 499.999 271.594" xml:space="preserve">
<path fill="#3A3A3A" d="M457.615,338.278c1.732-1.038,3.812-1.501,5.89-1.501c1.617,0,3.233,0.347,4.619,1.039
	c1.501,0.694,2.771,1.732,3.812,2.887l3.81-3.81c-1.501-1.849-3.348-3.233-5.427-4.157c-2.542-1.039-5.197-1.501-7.968-1.387
	c-2.771,0.116-5.428,0.924-7.737,2.194c-2.541,1.501-4.619,3.58-6.122,6.237c-1.501,2.771-2.193,5.772-2.193,8.892
	c0,3.117,0.692,6.12,2.193,8.892c1.386,2.541,3.464,4.734,6.005,6.235c2.657,1.502,5.659,2.311,8.662,2.194
	c2.425,0,4.85-0.462,7.16-1.387c2.079-0.922,4.042-2.425,5.427-4.155l-3.81-3.812c-1.04,1.271-2.311,2.309-3.812,3.003
	c-1.501,0.692-3.118,1.038-4.735,1.038c-2.079,0-4.042-0.462-5.889-1.5c-1.733-1.041-3.119-2.426-4.042-4.158
	c-0.924-1.847-1.502-4.042-1.502-6.12c0-2.079,0.462-4.158,1.502-6.121C454.498,340.819,455.884,339.318,457.615,338.278
	L457.615,338.278z M451.727,299.247h16.167v14.435h5.773v-33.72h-5.773v13.858h-16.167v-13.858h-5.773v33.72h5.773V299.247z
	 M480.827,313.682h5.774v-33.72h-5.774V313.682z M511.314,281.462c-2.194-1.039-4.619-1.5-7.045-1.385h-10.393v33.604h5.772v-9.7
	h4.62c2.426,0,4.851-0.462,7.045-1.387c1.963-0.922,3.58-2.309,4.618-4.155c1.041-1.965,1.617-4.158,1.617-6.354
	c0-2.192-0.576-4.387-1.617-6.35C514.895,283.772,513.277,282.387,511.314,281.462L511.314,281.462z M509.698,296.937
	c-1.271,1.154-3.233,1.732-5.774,1.732h-4.274v-13.396h4.274c2.541,0,4.504,0.578,5.774,1.733c1.271,1.154,1.963,2.771,1.963,4.964
	C511.661,294.165,511.083,295.782,509.698,296.937L509.698,296.937z M568.132,280.077l-15.591,33.604h6.582l3.464-7.737h17.323
	l3.464,7.737h6.699l-15.591-33.72h-6.351V280.077z M564.782,300.979l6.467-14.666l6.467,14.666H564.782z M506.116,333.544
	c-2.655-1.5-5.658-2.194-8.775-2.194s-6.005,0.809-8.776,2.194c-2.541,1.501-4.735,3.58-6.12,6.237
	c-1.501,2.771-2.194,5.772-2.194,8.892c0,3.117,0.808,6.12,2.194,8.892c1.385,2.541,3.579,4.734,6.12,6.235
	c2.655,1.502,5.659,2.194,8.776,2.194s6.005-0.809,8.775-2.194c2.542-1.501,4.62-3.58,6.121-6.235
	c1.503-2.771,2.195-5.774,2.195-8.892c0-3.119-0.809-6.121-2.195-8.892C510.736,337.124,508.658,335.045,506.116,333.544
	L506.116,333.544z M507.041,354.678c-0.925,1.732-2.309,3.233-3.926,4.271c-1.732,1.04-3.695,1.503-5.658,1.503
	s-3.926-0.578-5.659-1.503c-1.732-1.038-3.119-2.425-3.927-4.271c-0.923-1.849-1.501-3.926-1.501-6.121
	c0-2.194,0.462-4.157,1.501-6.12c0.924-1.733,2.311-3.233,3.927-4.272c1.733-1.04,3.696-1.502,5.659-1.502s3.926,0.578,5.658,1.502
	c1.732,1.039,3.117,2.425,3.926,4.272c0.924,1.849,1.503,3.926,1.503,6.12C508.544,350.752,507.965,352.829,507.041,354.678z
	 M703.36,331.812v5.313h10.508v28.408h5.889v-28.408h10.509v-5.313H703.36z M694.006,354.562l-17.438-22.75h-4.851v33.721h5.889
	v-22.75l17.438,22.75h4.85v-33.721h-5.889V354.562z M548.269,331.812l-9.816,17.899l-10.046-17.899h-7.275v33.721h6.235v-23.326
	l10.971,19.4l11.202-19.748v23.558h6.235v-33.721h-7.506V331.812z M580.141,333.198c-2.193-1.04-4.734-1.501-7.159-1.387h-10.509
	v33.721h5.889v-9.7h4.62c2.425,0,4.966-0.462,7.159-1.387c1.963-0.923,3.58-2.309,4.736-4.156c1.038-1.963,1.616-4.157,1.616-6.353
	c0-2.192-0.578-4.388-1.616-6.351C583.721,335.623,582.104,334.122,580.141,333.198L580.141,333.198z M578.524,348.787
	c-1.271,1.156-3.233,1.732-5.889,1.732h-4.391v-13.396h4.391c2.539,0,4.504,0.578,5.889,1.732c1.271,1.154,1.963,2.771,1.963,4.966
	C580.603,345.901,579.91,347.633,578.524,348.787z M541.454,305.944l3.465,7.737h6.697l-15.589-33.72h-6.353l-15.473,33.72h6.581
	l3.465-7.737H541.454z M532.908,286.313l6.469,14.666h-12.936L532.908,286.313z M597.811,331.812h-5.891v33.721h22.403v-5.313
	h-16.513V331.812z M619.174,365.416h5.891v-33.721h-5.891V365.416z M382.438,403.41c0.115,8.084,0.231,13.973,0.347,16.859
	c0.115,0.347,0.115,0.809,0,1.156c0,0.461,0,0.809,0,0.809c0,1.617,0.23,3.233,0.692,4.734c0.462-1.501,0.692-3.117,0.692-4.734
	c0-0.578,0.232-9.008,0.578-22.52c-0.116,0.116-0.231,0.23-0.231,0.347C383.708,401.102,383.015,402.256,382.438,403.41z
	 M358.418,234.809c1.847-1.963,3.58-4.273,4.85-6.698c-0.924,2.079-4.504,9.932-1.041,10.625c3.812,0.693,8.084-0.462,15.822-10.278
	c-0.231-12.587-0.462-23.558-0.578-31.873h-4.157c-0.231,0-0.346,0-0.577,0c-2.309,0-6.121-0.231-8.661-4.042
	c-2.771-4.157-2.887-8.43-3.003-11.548c-0.115-4.504-1.271-12.703-6.929-17.322c-3.926-3.118-14.55-5.543-24.365-1.617
	c-3.233,1.271-9.701,4.619-16.052,7.737c-5.774,2.887-13.165,6.467-15.475,6.467c3.811-1.732,8.892-4.273,14.435-7.391
	c6.352-3.465,13.05-7.16,16.398-8.546c6.698-2.656,19.516-3.464,26.099,1.848c6.235,5.082,7.505,13.858,7.622,18.593
	c0.116,3.118,0.231,6.929,2.656,10.74c2.194,3.233,5.659,3.233,7.737,3.233h0.462h3.695c0-1.039,0-1.963,0-3.002
	c-3.695,0.231-9.007,0.461-11.317-4.504c-2.771-6.005,0.231-21.364-9.008-27.831c-9.238-6.467-24.019-4.85-37.184,2.771
	c-13.049,7.506-30.372,17.322-51.735,25.868c-21.364,8.546-34.645,12.01-37.186,12.357c-2.425,0.462,1.964,2.079,11.087,2.31
	s16.745-0.462,16.745-0.462l66.979-30.486c0,0-57.741,28.754-62.591,31.873c-4.85,3.118-8.776,4.157-8.43,7.044
	c0.346,2.887,4.042,2.541,14.205,2.31c10.161-0.231,12.356-1.155,15.82-2.194c3.465-1.04,40.997-18.361,40.997-18.361
	s-40.188,19.978-45.962,24.598c-5.773,4.619,0.461,6.12,4.389,6.235c4.042,0.116,14.782-0.461,20.786-3.464
	c6.006-3.003,24.713-15.013,24.713-15.013s-18.477,13.28-22.057,16.283c-2.887,2.425-4.389,4.504-3.695,7.044
	c1.039,3.233,6.583,2.887,13.973,0.231c0,0,7.622-2.656,10.509-5.197c2.887-2.656,10.972-9.816,10.972-9.816
	s-9.585,9.931-12.01,14.204c-2.31,4.273-2.771,5.313-1.617,7.737c1.617,3.465,13.857-0.115,17.322-3.811
	c2.54-2.887,4.965-5.89,7.16-9.124c0,0-3.695,6.005-4.504,9.47c-0.808,3.464-1.732,6.236,1.617,6.583
	C351.027,238.966,354.491,239.081,358.418,234.809z M381.283,313.451c0.346-0.231,0.693-0.462,1.04-0.693l0,0
	c0.692-0.463,1.271-0.809,1.733-1.271c0.922-0.576,1.847-1.269,2.771-1.847c0.115-6.583,0.346-13.279,0.462-19.862
	c-1.849-0.808-3.812-1.616-5.89-2.425l0,0c-0.116,0-0.232-0.116-0.347-0.116c-0.231-0.115-0.347-0.115-0.577-0.229l0,0
	c-1.387-0.463-2.656-1.041-4.158-1.503c-1.732-0.692-3.464-1.271-5.196-1.963c-11.548,6.121-13.858,9.008-13.858,14.666
	c0,7.968,6.814,11.549,18.592,19.055C377.703,315.875,379.55,314.606,381.283,313.451z M367.079,299.247
	c0,0-0.808-5.082,12.241-10.97c0.346-0.116,0.692-0.349,1.039-0.463c0.116,7.968,0.232,15.935,0.462,23.904
	C374.354,307.331,367.079,303.173,367.079,299.247z M386.826,397.29c-0.578,0.692-1.154,1.387-1.732,1.963
	c3.349,4.504,3.118,8.892,1.271,14.55c1.732-1.963,5.196-6.929,2.309-13.396C388.097,399.369,387.519,398.328,386.826,397.29
	L386.826,397.29z M381.513,349.943c1.271,1.269,2.772,2.771,4.273,4.271l0,0c0.924,0.925,1.849,1.848,2.887,2.888
	c0.116,0.116,0.347,0.23,0.578,0.462c7.853-6.813,15.012-13.281,15.012-21.365c0-6.351-6.121-12.125-12.241-16.743
	c-0.577,0.347-1.154,0.692-1.732,1.154c-1.385,0.925-2.655,1.733-3.81,2.541l0,0c0,0-0.116,0-0.116,0.114
	c-0.231,0.232-0.578,0.347-0.809,0.578l0,0c-1.617,1.155-3.118,2.193-4.504,3.233C381.283,334.814,381.399,342.552,381.513,349.943
	L381.513,349.943z M386.48,324.421c7.622,5.544,10.624,9.123,10.624,13.049c0,4.042-4.273,8.778-11.202,15.707
	C386.018,343.937,386.248,334.353,386.48,324.421L386.48,324.421z M428.63,213.444c0,0,8.083,7.16,10.971,9.815
	c2.887,2.656,10.508,5.197,10.508,5.197c7.392,2.656,12.935,3.003,13.973-0.231c0.81-2.54-0.809-4.734-3.694-7.044
	c-3.582-3.003-22.058-16.283-22.058-16.283s18.708,12.01,24.713,15.013c6.005,3.003,16.744,3.58,20.786,3.464
	c4.042-0.116,10.162-1.617,4.39-6.236c-5.774-4.619-45.962-24.598-45.962-24.598s37.417,17.438,40.997,18.362
	c3.463,1.039,5.658,1.848,15.82,2.194c10.163,0.231,13.742,0.578,14.204-2.31c0.463-2.771-3.579-3.811-8.43-7.044
	c-4.85-3.119-62.591-31.873-62.591-31.873l66.98,30.487c0,0,7.621,0.693,16.745,0.462c9.122-0.231,13.51-1.848,11.085-2.31
	c-2.426-0.462-15.821-3.811-37.185-12.356c-21.365-8.546-38.686-18.246-51.736-25.868c-13.049-7.506-27.945-9.239-37.184-2.772
	c-9.239,6.467-6.236,21.71-9.008,27.831c-2.31,4.966-7.623,4.735-11.317,4.504c0,0.924,0,1.962-0.115,3.002h3.81h0.462
	c2.079,0,5.543,0,7.737-3.233c2.425-3.695,2.541-7.622,2.657-10.74c0.114-4.734,1.385-13.511,7.621-18.592
	c6.584-5.313,19.401-4.504,26.099-1.848c3.349,1.271,10.047,4.965,16.399,8.545c5.542,3.118,10.625,5.659,14.435,7.391
	c-2.424,0-9.701-3.58-15.474-6.467c-6.236-3.233-12.704-6.467-16.053-7.737c-9.816-3.926-20.44-1.501-24.366,1.617
	c-5.774,4.62-6.813,12.819-6.929,17.323c-0.116,3.118-0.231,7.506-3.002,11.548c-2.425,3.811-6.236,4.042-8.662,4.042
	c-0.231,0-0.346,0-0.577,0h-4.157c-0.232,8.314-0.462,19.169-0.693,31.526c7.853,10.047,12.356,11.317,16.052,10.509
	c3.465-0.693,0-8.546-1.04-10.625c1.386,2.425,3.004,4.619,4.851,6.698c3.812,4.272,7.391,4.157,10.855,3.695
	c3.463-0.461,2.425-3.118,1.617-6.582c-0.808-3.465-4.505-9.47-4.505-9.47c2.194,3.118,4.619,6.236,7.16,9.123
	c3.465,3.695,15.705,7.391,17.323,3.811c1.038-2.31,0.692-3.464-1.618-7.737C438.331,223.375,428.63,213.444,428.63,213.444z
	 M384.169,178.107c1.849,0,3.695-0.577,5.197-1.617c1.502-1.04,2.772-2.541,3.465-4.157c0.692-1.732,0.924-3.58,0.577-5.427
	c-0.346-1.848-1.27-3.465-2.54-4.851c-1.271-1.271-3.003-2.194-4.85-2.541c-1.849-0.346-3.696-0.23-5.428,0.578
	c-1.732,0.692-3.233,1.963-4.158,3.464c-1.039,1.501-1.617,3.349-1.617,5.196c0,1.271,0.23,2.425,0.692,3.58
	c0.462,1.155,1.155,2.194,2.079,3.003c0.924,0.923,1.848,1.617,3.003,2.078C381.629,177.876,382.899,178.107,384.169,178.107
	L384.169,178.107z M414.888,248.319c0,0-0.23-6.467-10.74-7.16c-10.74-0.693-11.201,3.926-10.971,5.659l0,0
	c0.808,0,1.501,0.231,1.501,0.462s-0.577,0.462-1.271,0.462c0.577,1.732,2.194,3.811,6.814,6.121
	c3.81,1.848,5.658,1.732,7.853,1.386c0,0,2.541,1.501,2.541,3.926c0,2.31-4.043,6.813-22.981,16.283
	c1.154-51.042,2.194-95.85,2.194-95.85h1.154c0.462,0,0.924-0.23,1.271-0.577c0.346-0.347,0.577-0.808,0.577-1.27v-0.578
	c0-0.23,0-0.462-0.116-0.693c-0.115-0.231-0.23-0.462-0.461-0.577c-1.04,1.154-2.194,2.078-3.581,2.771
	c-1.385,0.693-2.887,0.924-4.388,0.924c-1.5,0-3.002-0.346-4.389-0.924c-1.385-0.577-2.655-1.617-3.58-2.771
	c-0.23,0.231-0.346,0.346-0.462,0.577c-0.115,0.231-0.115,0.462-0.115,0.693v0.578c0,0.462,0.231,0.923,0.577,1.27
	s0.808,0.577,1.271,0.577h1.154c0,0,0.809,43.537,1.617,93.656c1.618,0.808,3.234,1.617,5.082,2.541
	c0.232,0.115,0.578,0.23,0.808,0.346c4.274,2.079,7.854,3.811,10.856,5.428c10.162-3.927,20.093-8.43,23.097-14.782
	C425.513,255.017,414.888,248.319,414.888,248.319z M400.798,245.664c-1.154,0-2.078-0.578-2.078-1.271s0.923-1.27,2.078-1.27
	c1.156,0,2.079,0.577,2.079,1.27S401.954,245.664,400.798,245.664L400.798,245.664z M382.438,391.861
	c0.923-1.154,1.732-2.309,2.656-3.348c0.116-6.582,0.346-13.974,0.462-21.941c-1.154-1.156-2.425-2.311-3.812-3.581l0,0
	c-0.461-0.347-0.808-0.809-1.27-1.154c-0.578-0.577-1.155-1.039-1.733-1.501c-3.233,3.003-9.584,9.7-9.584,15.475
	c0,6.813,6.582,13.742,11.547,18.708C381.167,393.479,381.744,392.67,382.438,391.861L382.438,391.861z M381.744,364.378
	c0.232,9.816,0.347,18.824,0.462,26.562c-3.811-5.082-7.853-10.278-7.853-13.858C374.354,373.731,376.317,369.92,381.744,364.378
	L381.744,364.378z M384.401,277.305c-22.52-10.855-27.139-15.821-27.139-18.246c0-2.426,2.54-3.927,2.54-3.927
	c2.195,0.462,4.042,0.462,7.854-1.386c4.619-2.194,6.235-4.388,6.813-6.121c-0.693,0-1.271-0.23-1.271-0.461
	c0-0.231,0.692-0.462,1.501-0.462v-0.115c0.116-1.732-0.462-6.236-11.086-5.543c-10.509,0.693-10.74,7.16-10.74,7.16
	s-10.625,6.813-5.081,18.362c4.85,10.277,27.6,15.705,40.765,21.595c13.049,5.888,12.24,10.97,12.24,10.97
	c0,4.389-8.776,9.009-15.705,13.858c-6.928,4.851-21.596,13.28-21.596,23.21c0,9.124,9.123,16.169,18.015,24.021
	c9.009,7.854,11.895,12.588,11.895,16.976c0,6.007-9.931,14.09-15.013,24.137c-5.081,10.046,4.965,25.637,1.848,17.438
	c-3.233-8.2-1.502-13.975,2.656-19.747c5.082-7.045,15.936-13.974,15.936-23.328c0-7.854-11.432-17.091-11.432-17.091
	c-10.162-10.163-16.629-15.938-16.629-21.018s4.85-9.584,18.477-18.478c13.512-8.776,21.479-12.239,21.479-20.785
	C410.73,290.816,406.92,288.161,384.401,277.305z M367.079,243.238c1.155,0,2.079,0.578,2.079,1.271s-0.924,1.271-2.079,1.271
	c-1.155,0-2.079-0.578-2.079-1.271S365.923,243.238,367.079,243.238L367.079,243.238z M645.157,331.812l-15.591,33.721h6.582
	l3.466-7.737h17.321l3.464,7.737h6.699l-15.591-33.721H645.157z M641.808,352.829l6.467-14.665l6.467,14.665H641.808z"/>
</svg>
