<?xml version="1.0" encoding="utf-8"?>
<!-- Generator: Adobe Illustrator 16.0.0, SVG Export Plug-In . SVG Version: 6.00 Build 0)  -->
<!DOCTYPE svg PUBLIC "-//W3C//DTD SVG 1.1//EN" "http://www.w3.org/Graphics/SVG/1.1/DTD/svg11.dtd">
<svg version="1.1" id="katman_1" xmlns="http://www.w3.org/2000/svg" xmlns:xlink="http://www.w3.org/1999/xlink" x="0px" y="0px"
	 width="499.999px" height="165.861px" viewBox="922.31 179.773 499.999 165.861"
	 enable-background="new 922.31 179.773 499.999 165.861" xml:space="preserve">
<g>
	<g>
		<path fill="#3A3A3A" d="M1091.839,282.327l14.084-1.369c0.847,4.729,2.567,8.2,5.159,10.416c2.592,2.218,6.089,3.326,10.49,3.326
			c4.662,0,8.175-0.986,10.54-2.958c2.363-1.973,3.544-4.28,3.544-6.921c0-1.694-0.496-3.137-1.491-4.328
			c-0.994-1.189-2.731-2.225-5.208-3.105c-1.695-0.587-5.56-1.63-11.591-3.13c-7.76-1.924-13.204-4.287-16.334-7.091
			c-4.4-3.945-6.603-8.754-6.603-14.427c0-3.651,1.035-7.066,3.105-10.246c2.07-3.179,5.054-5.6,8.95-7.262
			c3.896-1.663,8.599-2.495,14.109-2.495c8.998,0,15.771,1.974,20.319,5.918c4.548,3.945,6.937,9.211,7.165,15.796l-14.476,0.635
			c-0.619-3.684-1.948-6.333-3.986-7.947c-2.038-1.614-5.094-2.42-9.169-2.42c-4.207,0-7.5,0.864-9.88,2.592
			c-1.533,1.108-2.299,2.592-2.299,4.45c0,1.696,0.718,3.146,2.152,4.353c1.825,1.533,6.26,3.13,13.302,4.793
			c7.043,1.662,12.251,3.383,15.626,5.159c3.374,1.777,6.015,4.206,7.922,7.287c1.908,3.081,2.861,6.888,2.861,11.419
			c0,4.107-1.142,7.956-3.423,11.541c-2.283,3.587-5.511,6.252-9.684,7.996c-4.174,1.744-9.373,2.617-15.601,2.617
			c-9.064,0-16.024-2.095-20.883-6.284S1092.783,290.348,1091.839,282.327z"/>
		<path fill="#3A3A3A" d="M1192.289,289.125l13.693,2.299c-1.76,5.021-4.541,8.845-8.338,11.468
			c-3.799,2.626-8.551,3.937-14.256,3.937c-9.031,0-15.716-2.949-20.051-8.852c-3.424-4.728-5.136-10.693-5.136-17.899
			c0-8.607,2.25-15.348,6.749-20.222c4.5-4.874,10.188-7.311,17.067-7.311c7.729,0,13.824,2.551,18.291,7.654
			c4.467,5.102,6.603,12.919,6.407,23.449h-34.429c0.096,4.076,1.204,7.246,3.324,9.513c2.119,2.267,4.76,3.398,7.923,3.398
			c2.152,0,3.961-0.586,5.429-1.76C1190.431,293.625,1191.539,291.734,1192.289,289.125z M1193.071,275.236
			c-0.097-3.978-1.124-7.001-3.08-9.072c-1.957-2.07-4.337-3.105-7.141-3.105c-3.001,0-5.478,1.093-7.433,3.277
			c-1.957,2.185-2.919,5.152-2.887,8.901H1193.071z"/>
		<path fill="#3A3A3A" d="M1263.201,269.074l-13.546,2.445c-0.457-2.706-1.492-4.744-3.105-6.113
			c-1.614-1.369-3.71-2.054-6.284-2.054c-3.423,0-6.154,1.183-8.192,3.546c-2.037,2.364-3.057,6.317-3.057,11.859
			c0,6.163,1.034,10.515,3.106,13.058c2.069,2.542,4.849,3.814,8.338,3.814c2.607,0,4.744-0.742,6.406-2.226
			s2.836-4.035,3.521-7.653l13.498,2.298c-1.402,6.195-4.092,10.874-8.07,14.037c-3.979,3.161-9.309,4.742-15.99,4.742
			c-7.598,0-13.653-2.396-18.169-7.188c-4.517-4.793-6.773-11.427-6.773-19.904c0-8.574,2.266-15.25,6.798-20.027
			c4.53-4.775,10.661-7.164,18.388-7.164c6.325,0,11.354,1.361,15.088,4.083C1258.89,259.35,1261.571,263.499,1263.201,269.074z"/>
		<path fill="#3A3A3A" d="M1307.804,305.655v-7.776c-1.892,2.772-4.377,4.957-7.458,6.554c-3.082,1.597-6.333,2.396-9.757,2.396
			c-3.489,0-6.619-0.766-9.39-2.298c-2.771-1.531-4.777-3.684-6.016-6.455c-1.239-2.771-1.858-6.603-1.858-11.493v-32.864h13.743
			v23.866c0,7.303,0.251,11.779,0.758,13.424c0.504,1.646,1.425,2.951,2.763,3.913c1.337,0.962,3.032,1.442,5.087,1.442
			c2.347,0,4.45-0.644,6.308-1.932c1.858-1.288,3.131-2.886,3.814-4.793c0.686-1.906,1.027-6.577,1.027-14.011v-21.91h13.743v51.938
			H1307.804z"/>
		<path fill="#3A3A3A" d="M1347.954,305.655h-13.741v-51.938h12.764v7.385c2.184-3.489,4.148-5.787,5.894-6.896
			c1.743-1.108,3.725-1.663,5.942-1.663c3.129,0,6.145,0.864,9.046,2.592l-4.255,11.981c-2.314-1.499-4.466-2.25-6.455-2.25
			c-1.924,0-3.554,0.531-4.891,1.589c-1.337,1.06-2.389,2.976-3.153,5.747c-0.768,2.771-1.15,8.575-1.15,17.41V305.655z"/>
		<path fill="#3A3A3A" d="M1403.853,289.125l13.693,2.299c-1.761,5.021-4.54,8.845-8.338,11.468
			c-3.799,2.626-8.551,3.937-14.256,3.937c-9.032,0-15.715-2.949-20.052-8.852c-3.422-4.728-5.135-10.693-5.135-17.899
			c0-8.607,2.25-15.348,6.749-20.222c4.5-4.874,10.188-7.311,17.068-7.311c7.727,0,13.823,2.551,18.291,7.654
			c4.466,5.102,6.602,12.919,6.405,23.449h-34.429c0.098,4.076,1.206,7.246,3.325,9.513s4.76,3.398,7.923,3.398
			c2.152,0,3.962-0.586,5.43-1.76C1401.994,293.625,1403.103,291.734,1403.853,289.125z M1404.635,275.236
			c-0.097-3.978-1.124-7.001-3.08-9.072c-1.956-2.07-4.337-3.105-7.14-3.105c-3.001,0-5.478,1.093-7.435,3.277
			c-1.956,2.185-2.918,5.152-2.886,8.901H1404.635z"/>
		<path fill="#3A3A3A" d="M1110.384,329.688l-5.723,1.033c-0.192-1.143-0.63-2.004-1.313-2.581c-0.681-0.58-1.566-0.869-2.653-0.869
			c-1.446,0-2.601,0.501-3.46,1.498c-0.86,0.998-1.291,2.669-1.291,5.009c0,2.604,0.438,4.441,1.312,5.516
			c0.875,1.074,2.048,1.61,3.521,1.61c1.102,0,2.005-0.313,2.707-0.939c0.702-0.626,1.197-1.704,1.486-3.232l5.701,0.971
			c-0.593,2.617-1.728,4.593-3.408,5.929c-1.681,1.335-3.931,2.004-6.754,2.004c-3.209,0-5.767-1.013-7.675-3.037
			c-1.907-2.024-2.86-4.826-2.86-8.407c0-3.622,0.957-6.441,2.871-8.459c1.914-2.017,4.503-3.025,7.767-3.025
			c2.671,0,4.796,0.575,6.372,1.726C1108.562,325.581,1109.695,327.334,1110.384,329.688z"/>
		<path fill="#3A3A3A" d="M1113.44,333.86c0-1.928,0.476-3.793,1.425-5.598c0.95-1.804,2.296-3.182,4.038-4.132
			c1.742-0.949,3.688-1.425,5.836-1.425c3.317,0,6.038,1.078,8.158,3.232c2.121,2.155,3.181,4.879,3.181,8.169
			c0,3.32-1.069,6.07-3.211,8.253s-4.838,3.274-8.088,3.274c-2.01,0-3.928-0.456-5.752-1.364c-1.825-0.908-3.212-2.24-4.162-3.996
			C1113.916,338.519,1113.44,336.381,1113.44,333.86z M1119.389,334.171c0,2.176,0.517,3.841,1.55,4.998
			c1.032,1.157,2.307,1.734,3.82,1.734c1.515,0,2.786-0.577,3.812-1.734c1.026-1.157,1.54-2.836,1.54-5.04
			c0-2.147-0.514-3.801-1.54-4.958c-1.025-1.156-2.297-1.734-3.812-1.734c-1.514,0-2.788,0.578-3.82,1.734
			C1119.905,330.328,1119.389,331.994,1119.389,334.171z"/>
		<path fill="#3A3A3A" d="M1140.188,323.202h5.351v2.995c1.913-2.327,4.193-3.491,6.837-3.491c1.404,0,2.624,0.289,3.656,0.868
			c1.032,0.578,1.88,1.452,2.541,2.623c0.964-1.171,2.003-2.045,3.12-2.623c1.114-0.579,2.305-0.868,3.572-0.868
			c1.611,0,2.975,0.327,4.09,0.981s1.948,1.615,2.499,2.882c0.399,0.937,0.599,2.451,0.599,4.543v14.025h-5.803v-12.537
			c0-2.176-0.201-3.58-0.6-4.214c-0.537-0.827-1.363-1.24-2.479-1.24c-0.813,0-1.577,0.248-2.293,0.744
			c-0.717,0.496-1.233,1.223-1.55,2.18c-0.316,0.958-0.475,2.468-0.475,4.534v10.533h-5.805v-12.021c0-2.134-0.104-3.511-0.31-4.131
			s-0.527-1.081-0.961-1.384c-0.434-0.304-1.021-0.455-1.766-0.455c-0.896,0-1.7,0.242-2.417,0.724
			c-0.716,0.481-1.229,1.178-1.539,2.086c-0.31,0.909-0.465,2.418-0.465,4.523v10.658h-5.805V323.202z"/>
		<path fill="#3A3A3A" d="M1177.805,323.202h5.35v2.995c1.913-2.327,4.193-3.491,6.837-3.491c1.405,0,2.623,0.289,3.656,0.868
			c1.032,0.578,1.88,1.452,2.541,2.623c0.964-1.171,2.003-2.045,3.119-2.623c1.115-0.579,2.306-0.868,3.572-0.868
			c1.611,0,2.976,0.327,4.09,0.981c1.116,0.654,1.949,1.615,2.5,2.882c0.399,0.937,0.599,2.451,0.599,4.543v14.025h-5.803v-12.537
			c0-2.176-0.201-3.58-0.6-4.214c-0.537-0.827-1.363-1.24-2.479-1.24c-0.814,0-1.578,0.248-2.293,0.744
			c-0.717,0.496-1.233,1.223-1.55,2.18c-0.316,0.958-0.475,2.468-0.475,4.534v10.533h-5.805v-12.021c0-2.134-0.104-3.511-0.31-4.131
			c-0.206-0.62-0.527-1.081-0.961-1.384c-0.434-0.304-1.022-0.455-1.766-0.455c-0.896,0-1.7,0.242-2.417,0.724
			c-0.716,0.481-1.229,1.178-1.54,2.086c-0.309,0.909-0.464,2.418-0.464,4.523v10.658h-5.804V323.202z"/>
		<path fill="#3A3A3A" d="M1230.291,345.138v-3.283c-0.8,1.171-1.85,2.094-3.15,2.768c-1.302,0.675-2.675,1.013-4.121,1.013
			c-1.474,0-2.795-0.324-3.965-0.972c-1.171-0.646-2.018-1.556-2.542-2.726c-0.522-1.171-0.784-2.79-0.784-4.854v-13.881h5.805
			v10.08c0,3.085,0.106,4.975,0.319,5.67c0.214,0.696,0.603,1.246,1.167,1.652c0.565,0.406,1.28,0.61,2.149,0.61
			c0.99,0,1.879-0.272,2.664-0.816c0.784-0.545,1.321-1.219,1.611-2.025c0.289-0.806,0.434-2.777,0.434-5.917v-9.254h5.805v21.936
			H1230.291z"/>
		<path fill="#3A3A3A" d="M1261.646,345.138h-5.805v-11.194c0-2.369-0.123-3.901-0.371-4.597c-0.248-0.694-0.65-1.234-1.208-1.621
			c-0.559-0.386-1.229-0.579-2.015-0.579c-1.005,0-1.907,0.276-2.706,0.827c-0.798,0.55-1.345,1.28-1.641,2.189
			c-0.298,0.908-0.444,2.589-0.444,5.04v9.935h-5.805v-21.936h5.392v3.223c1.913-2.479,4.323-3.719,7.229-3.719
			c1.28,0,2.45,0.231,3.511,0.692c1.061,0.462,1.862,1.05,2.407,1.766c0.543,0.717,0.922,1.528,1.136,2.438
			c0.213,0.908,0.319,2.211,0.319,3.903V345.138z"/>
		<path fill="#3A3A3A" d="M1267.533,320.228v-5.371h5.805v5.371H1267.533z M1267.533,345.138v-21.936h5.805v21.936H1267.533z"/>
		<path fill="#3A3A3A" d="M1298.415,329.688l-5.722,1.033c-0.193-1.143-0.63-2.004-1.313-2.581c-0.682-0.58-1.566-0.869-2.654-0.869
			c-1.445,0-2.6,0.501-3.459,1.498c-0.861,0.998-1.292,2.669-1.292,5.009c0,2.604,0.438,4.441,1.312,5.516
			c0.875,1.074,2.049,1.61,3.522,1.61c1.102,0,2.004-0.313,2.706-0.939c0.703-0.626,1.197-1.704,1.486-3.232l5.701,0.971
			c-0.592,2.617-1.729,4.593-3.407,5.929c-1.681,1.335-3.933,2.004-6.755,2.004c-3.209,0-5.767-1.013-7.674-3.037
			s-2.86-4.826-2.86-8.407c0-3.622,0.957-6.441,2.87-8.459c1.915-2.017,4.504-3.025,7.768-3.025c2.671,0,4.795,0.575,6.372,1.726
			C1296.593,325.581,1297.726,327.334,1298.415,329.688z"/>
		<path fill="#3A3A3A" d="M1307.151,329.896l-5.267-0.951c0.591-2.121,1.61-3.69,3.057-4.71c1.446-1.019,3.594-1.528,6.444-1.528
			c2.589,0,4.517,0.307,5.784,0.92c1.267,0.612,2.159,1.391,2.675,2.334c0.517,0.942,0.775,2.674,0.775,5.194l-0.063,6.775
			c0,1.929,0.093,3.35,0.278,4.266c0.187,0.915,0.534,1.896,1.044,2.942h-5.743c-0.151-0.384-0.337-0.956-0.557-1.714
			c-0.097-0.344-0.166-0.571-0.208-0.682c-0.991,0.965-2.051,1.688-3.181,2.169c-1.128,0.482-2.334,0.724-3.614,0.724
			c-2.259,0-4.038-0.613-5.34-1.839s-1.951-2.774-1.951-4.648c0-1.239,0.295-2.344,0.888-3.313c0.593-0.972,1.422-1.715,2.489-2.231
			c1.066-0.517,2.604-0.967,4.616-1.354c2.713-0.509,4.593-0.984,5.64-1.425v-0.578c0-1.116-0.275-1.911-0.827-2.386
			c-0.55-0.476-1.59-0.714-3.119-0.714c-1.032,0-1.838,0.204-2.416,0.61S1307.51,328.876,1307.151,329.896z M1314.919,334.604
			c-0.744,0.248-1.921,0.543-3.533,0.888c-1.611,0.344-2.664,0.683-3.159,1.012c-0.758,0.537-1.137,1.219-1.137,2.045
			c0,0.813,0.303,1.516,0.909,2.107c0.605,0.592,1.377,0.888,2.313,0.888c1.046,0,2.045-0.343,2.995-1.032
			c0.701-0.522,1.163-1.163,1.384-1.921c0.15-0.496,0.228-1.438,0.228-2.83V334.604z"/>
		<path fill="#3A3A3A" d="M1336.4,323.202v4.626h-3.966v8.841c0,1.791,0.038,2.833,0.114,3.13c0.075,0.297,0.247,0.541,0.516,0.733
			s0.597,0.289,0.98,0.289c0.538,0,1.316-0.186,2.335-0.558l0.496,4.504c-1.35,0.577-2.878,0.867-4.586,0.867
			c-1.046,0-1.99-0.176-2.829-0.526c-0.841-0.353-1.457-0.806-1.849-1.364c-0.394-0.558-0.665-1.312-0.816-2.262
			c-0.124-0.675-0.187-2.037-0.187-4.091v-9.563h-2.664v-4.626h2.664v-4.358l5.825-3.388v7.746H1336.4z"/>
		<path fill="#3A3A3A" d="M1340.429,320.228v-5.371h5.804v5.371H1340.429z M1340.429,345.138v-21.936h5.804v21.936H1340.429z"/>
		<path fill="#3A3A3A" d="M1350.839,333.86c0-1.928,0.476-3.793,1.426-5.598c0.95-1.804,2.296-3.182,4.038-4.132
			c1.742-0.949,3.687-1.425,5.836-1.425c3.317,0,6.037,1.078,8.158,3.232c2.121,2.155,3.181,4.879,3.181,8.169
			c0,3.32-1.07,6.07-3.211,8.253c-2.142,2.183-4.838,3.274-8.088,3.274c-2.011,0-3.928-0.456-5.753-1.364
			c-1.824-0.908-3.211-2.24-4.161-3.996S1350.839,336.381,1350.839,333.86z M1356.787,334.171c0,2.176,0.517,3.841,1.55,4.998
			s2.307,1.734,3.821,1.734s2.786-0.577,3.811-1.734c1.026-1.157,1.54-2.836,1.54-5.04c0-2.147-0.514-3.801-1.54-4.958
			c-1.024-1.156-2.296-1.734-3.811-1.734s-2.788,0.578-3.821,1.734C1357.304,330.328,1356.787,331.994,1356.787,334.171z"/>
		<path fill="#3A3A3A" d="M1397.977,345.138h-5.805v-11.194c0-2.369-0.124-3.901-0.371-4.597c-0.248-0.694-0.651-1.234-1.209-1.621
			c-0.558-0.386-1.229-0.579-2.014-0.579c-1.006,0-1.908,0.276-2.706,0.827c-0.799,0.55-1.346,1.28-1.643,2.189
			c-0.296,0.908-0.443,2.589-0.443,5.04v9.935h-5.805v-21.936h5.391v3.223c1.914-2.479,4.325-3.719,7.23-3.719
			c1.28,0,2.451,0.231,3.511,0.692c1.061,0.462,1.862,1.05,2.407,1.766c0.544,0.717,0.922,1.528,1.136,2.438
			c0.214,0.908,0.32,2.211,0.32,3.903V345.138z"/>
		<path fill="#3A3A3A" d="M1401.818,338.88l5.824-0.889c0.248,1.129,0.751,1.986,1.509,2.571c0.757,0.586,1.817,0.879,3.181,0.879
			c1.501,0,2.631-0.276,3.387-0.826c0.511-0.386,0.765-0.901,0.765-1.55c0-0.44-0.138-0.806-0.413-1.094
			c-0.288-0.276-0.936-0.53-1.941-0.766c-4.682-1.031-7.648-1.976-8.902-2.829c-1.735-1.184-2.603-2.831-2.603-4.938
			c0-1.899,0.751-3.497,2.251-4.792c1.501-1.294,3.828-1.941,6.982-1.941c3.002,0,5.233,0.489,6.691,1.467
			c1.46,0.978,2.465,2.424,3.017,4.337l-5.474,1.013c-0.234-0.854-0.678-1.508-1.332-1.963c-0.654-0.454-1.589-0.682-2.8-0.682
			c-1.528,0-2.623,0.215-3.284,0.642c-0.44,0.303-0.661,0.695-0.661,1.177c0,0.413,0.193,0.765,0.579,1.054
			c0.523,0.385,2.33,0.929,5.422,1.632c3.091,0.702,5.25,1.563,6.476,2.582c1.212,1.032,1.817,2.472,1.817,4.316
			c0,2.011-0.84,3.739-2.52,5.185c-1.681,1.446-4.166,2.17-7.457,2.17c-2.989,0-5.354-0.605-7.095-1.818
			C1403.495,342.604,1402.355,340.959,1401.818,338.88z"/>
	</g>
	<g>
		<path fill="#3A3A3A" d="M999.332,179.773c1.478,0,2.95,0.323,4.302,0.931l60.429,25.644c7.061,2.983,12.32,9.945,12.291,18.357
			c-0.162,31.833-13.255,90.083-68.549,116.556c-5.358,2.568-11.587,2.568-16.945,0c-55.293-26.474-68.388-84.723-68.55-116.556
			c-0.033-8.412,5.232-15.374,12.293-18.357l60.461-25.644C996.383,180.096,997.855,179.773,999.332,179.773z M999.332,201.212
			V322.52c44.288-21.438,56.195-68.903,56.48-97.366L999.332,201.212L999.332,201.212z"/>
	</g>
</g>
</svg>
