<?xml version="1.0" encoding="utf-8"?>
<!-- Generator: Adobe Illustrator 16.0.0, SVG Export Plug-In . SVG Version: 6.00 Build 0)  -->
<!DOCTYPE svg PUBLIC "-//W3C//DTD SVG 1.1//EN" "http://www.w3.org/Graphics/SVG/1.1/DTD/svg11.dtd">
<svg version="1.1" id="katman_1" xmlns="http://www.w3.org/2000/svg" xmlns:xlink="http://www.w3.org/1999/xlink" x="0px" y="0px"
	 width="500px" height="214.778px" viewBox="1640.537 115.103 500 214.778" enable-background="new 1640.537 115.103 500 214.778"
	 xml:space="preserve">
<g>
	<g>
		<path fill="#3A3A3A" d="M1938.945,160.523l10.185-0.638c0.222,1.654,0.67,2.915,1.351,3.782c1.103,1.402,2.675,2.104,4.728,2.104
			c1.525,0,2.707-0.359,3.53-1.076c0.828-0.716,1.245-1.547,1.245-2.493c0-0.898-0.396-1.702-1.182-2.412
			c-0.792-0.708-2.617-1.378-5.487-2.009c-4.696-1.056-8.042-2.458-10.042-4.207c-2.021-1.749-3.028-3.979-3.028-6.689
			c0-1.781,0.517-3.463,1.551-5.046c1.029-1.584,2.58-2.828,4.654-3.734c2.073-0.906,4.912-1.36,8.521-1.36
			c4.428,0,7.805,0.824,10.126,2.471c2.327,1.646,3.71,4.266,4.152,7.858l-10.094,0.591c-0.27-1.56-0.834-2.694-1.694-3.404
			c-0.854-0.708-2.042-1.063-3.556-1.063c-1.245,0-2.18,0.264-2.813,0.792c-0.628,0.528-0.944,1.17-0.944,1.926
			c0,0.553,0.258,1.049,0.78,1.489c0.502,0.458,1.699,0.883,3.594,1.277c4.681,1.008,8.031,2.029,10.058,3.06
			c2.025,1.033,3.498,2.313,4.416,3.842c0.924,1.529,1.388,3.238,1.388,5.129c0,2.221-0.617,4.27-1.847,6.146
			c-1.229,1.875-2.944,3.297-5.15,4.266c-2.211,0.97-4.991,1.454-8.348,1.454c-5.894,0-9.973-1.135-12.241-3.403
			C1940.528,166.906,1939.241,164.022,1938.945,160.523z"/>
		<path fill="#3A3A3A" d="M1974.421,154.685c0-5.657,1.577-10.062,4.728-13.213s7.54-4.728,13.165-4.728
			c5.768,0,10.21,1.548,13.334,4.645c3.118,3.096,4.681,7.434,4.681,13.012c0,4.05-0.681,7.372-2.048,9.962
			c-1.361,2.593-3.329,4.609-5.909,6.051c-2.575,1.442-5.783,2.164-9.63,2.164c-3.91,0-7.145-0.623-9.704-1.868
			c-2.559-1.244-4.638-3.213-6.227-5.908C1975.217,162.106,1974.421,158.735,1974.421,154.685z M1985.132,154.732
			c0,3.499,0.649,6.011,1.947,7.541c1.298,1.527,3.071,2.292,5.309,2.292c2.301,0,4.078-0.748,5.34-2.245
			c1.261-1.497,1.889-4.185,1.889-8.062c0-3.261-0.654-5.645-1.974-7.15c-1.313-1.504-3.097-2.257-5.35-2.257
			c-2.158,0-3.895,0.765-5.203,2.292C1985.781,148.673,1985.132,151.202,1985.132,154.732z"/>
		<path fill="#3A3A3A" d="M2039.165,157.805l9.382,2.836c-0.628,2.631-1.625,4.831-2.977,6.594c-1.355,1.765-3.039,3.098-5.05,3.996
			c-2.01,0.898-4.563,1.347-7.667,1.347c-3.768,0-6.844-0.547-9.233-1.643c-2.386-1.093-4.448-3.018-6.18-5.774
			c-1.735-2.757-2.601-6.284-2.601-10.583c0-5.732,1.524-10.136,4.574-13.215s7.361-4.618,12.943-4.618
			c4.364,0,7.794,0.882,10.29,2.647c2.501,1.765,4.354,4.476,5.566,8.131l-9.45,2.104c-0.332-1.057-0.681-1.829-1.045-2.316
			c-0.596-0.819-1.329-1.45-2.195-1.892c-0.865-0.44-1.836-0.662-2.907-0.662c-2.427,0-4.284,0.977-5.577,2.929
			c-0.981,1.448-1.467,3.723-1.467,6.823c0,3.84,0.58,6.473,1.746,7.896c1.166,1.424,2.808,2.137,4.918,2.137
			c2.048,0,3.599-0.575,4.644-1.725C2037.93,161.666,2038.689,159.996,2039.165,157.805z"/>
		<path fill="#3A3A3A" d="M2096.506,171.987h-28.885c0.333-2.852,1.336-5.535,3.014-8.048c1.678-2.513,4.828-5.48,9.445-8.899
			c2.817-2.096,4.622-3.688,5.413-4.775c0.786-1.087,1.183-2.119,1.183-3.096c0-1.055-0.391-1.958-1.172-2.707
			c-0.781-0.748-1.762-1.123-2.944-1.123c-1.229,0-2.231,0.387-3.013,1.158c-0.781,0.773-1.304,2.136-1.572,4.089l-9.641-0.78
			c0.375-2.71,1.071-4.825,2.079-6.346s2.427-2.687,4.264-3.499c1.836-0.811,4.379-1.217,7.624-1.217
			c3.388,0,6.021,0.386,7.904,1.158c1.884,0.773,3.367,1.958,4.443,3.558c1.082,1.599,1.62,3.392,1.62,5.377
			c0,2.112-0.617,4.129-1.853,6.051c-1.24,1.923-3.487,4.034-6.748,6.334c-1.942,1.34-3.235,2.278-3.89,2.814
			s-1.425,1.236-2.306,2.103h15.033V171.987z"/>
		<path fill="#3A3A3A" d="M1920.889,195.424h32.547v8.556h-10.918v26.096h-10.711V203.98h-10.918V195.424z"/>
		<path fill="#3A3A3A" d="M1954.781,195.424h11.894l6.98,11.69l6.997-11.69h11.83l-13.472,20.138v14.514h-10.732v-14.514
			L1954.781,195.424z"/>
		<path fill="#3A3A3A" d="M1995.886,195.424h17.798c3.879,0,6.781,0.921,8.712,2.765c1.932,1.844,2.897,4.469,2.897,7.873
			c0,3.499-1.056,6.232-3.156,8.2c-2.105,1.971-5.313,2.955-9.635,2.955h-5.862v12.859h-10.754V195.424z M2006.64,210.196h2.628
			c2.063,0,3.514-0.356,4.348-1.074s1.251-1.636,1.251-2.754c0-1.087-0.359-2.008-1.087-2.765c-0.724-0.757-2.09-1.134-4.09-1.134
			h-3.05V210.196z"/>
		<path fill="#3A3A3A" d="M2030.87,195.424h28.694v7.398h-17.967v5.509h16.663v7.065h-16.663v6.833h18.483v7.847h-29.211V195.424z"
			/>
		<path fill="#3A3A3A" d="M2082.423,195.424h10.732v34.652h-10.732V195.424z"/>
		<path fill="#3A3A3A" d="M2101.26,195.424h10.733v34.652h-10.733V195.424z"/>
		<path fill="#3A3A3A" d="M1933.01,276.521l6.812,2.058c-0.459,1.91-1.182,3.503-2.163,4.787c-0.981,1.279-2.205,2.245-3.662,2.896
			c-1.456,0.651-3.313,0.977-5.562,0.977c-2.733,0-4.965-0.396-6.701-1.19c-1.73-0.794-3.224-2.189-4.479-4.189
			c-1.262-2-1.89-4.559-1.89-7.678c0-4.161,1.108-7.355,3.319-9.59c2.211-2.232,5.34-3.351,9.387-3.351
			c3.166,0,5.657,0.641,7.472,1.921c1.811,1.282,3.155,3.248,4.037,5.899l-6.859,1.528c-0.238-0.765-0.491-1.327-0.755-1.681
			c-0.433-0.594-0.966-1.053-1.594-1.372c-0.628-0.319-1.335-0.48-2.11-0.48c-1.763,0-3.108,0.707-4.048,2.124
			c-0.707,1.05-1.061,2.702-1.061,4.949c0,2.786,0.423,4.696,1.267,5.73c0.845,1.034,2.037,1.549,3.567,1.549
			c1.488,0,2.611-0.417,3.372-1.25C1932.118,279.323,1932.667,278.109,1933.01,276.521z"/>
		<path fill="#3A3A3A" d="M1943.573,261.67h20.821v5.369h-13.033v3.994h12.089v5.129h-12.089v4.955h13.408v5.693h-21.196V261.67z"/>
		<path fill="#3A3A3A" d="M1969.06,286.811V261.67h12.948c2.401,0,4.232,0.206,5.504,0.617c1.267,0.412,2.29,1.174,3.071,2.29
			c0.775,1.113,1.166,2.472,1.166,4.071c0,1.396-0.301,2.599-0.897,3.612c-0.591,1.01-1.408,1.831-2.453,2.461
			c-0.66,0.398-1.572,0.731-2.729,0.992c0.929,0.311,1.6,0.62,2.026,0.928c0.285,0.206,0.696,0.646,1.24,1.322
			c0.544,0.676,0.907,1.195,1.087,1.562l3.763,7.285h-8.775l-4.152-7.683c-0.528-0.995-0.998-1.641-1.409-1.937
			c-0.56-0.39-1.192-0.585-1.899-0.585h-0.687v10.205H1969.06z M1976.863,271.856h3.271c0.354,0,1.04-0.113,2.059-0.343
			c0.517-0.103,0.934-0.367,1.261-0.789c0.327-0.422,0.491-0.91,0.491-1.459c0-0.81-0.259-1.433-0.771-1.868
			c-0.518-0.435-1.483-0.651-2.902-0.651h-3.409V271.856z"/>
		<path fill="#3A3A3A" d="M1994.202,261.67h23.613v6.208h-7.926v18.933h-7.767v-18.933h-7.921V261.67z"/>
		<path fill="#3A3A3A" d="M2021.636,261.67h7.788v25.141h-7.788V261.67z"/>
		<path fill="#3A3A3A" d="M2035.033,261.67h19.207v5.4h-11.403v4.39h9.741v5.076h-9.741v10.274h-7.804V261.67z"/>
		<path fill="#3A3A3A" d="M2058.73,261.67h7.783v25.141h-7.783V261.67z"/>
		<path fill="#3A3A3A" d="M2072.069,261.67h20.822v5.369h-13.033v3.994h12.089v5.129h-12.089v4.955h13.407v5.693h-21.196V261.67z"/>
		<path fill="#3A3A3A" d="M2097.556,261.67h11.54c2.274,0,4.11,0.309,5.515,0.926c1.397,0.618,2.559,1.504,3.472,2.66
			c0.913,1.153,1.578,2.496,1.989,4.029c0.411,1.533,0.617,3.155,0.617,4.87c0,2.686-0.306,4.77-0.918,6.25
			c-0.612,1.48-1.462,2.723-2.543,3.723c-1.087,1-2.254,1.665-3.499,1.997c-1.704,0.457-3.25,0.687-4.633,0.687h-11.54V261.67z
			 M2105.323,267.363v13.738h1.904c1.62,0,2.776-0.183,3.462-0.541c0.686-0.362,1.225-0.99,1.614-1.887
			c0.386-0.897,0.581-2.354,0.581-4.364c0-2.665-0.433-4.488-1.304-5.472c-0.865-0.984-2.306-1.475-4.321-1.475H2105.323z"/>
	</g>
	<g>
		<path fill="#3A3A3A" d="M1730.107,202.756h-6.318l-2.512-6.535h-11.501l-2.374,6.535h-6.161l11.205-28.767h6.143L1730.107,202.756
			z M1719.412,191.375l-3.963-10.674l-3.887,10.674H1719.412z"/>
		<path fill="#3A3A3A" d="M1733.01,202.756v-28.767h5.81v28.767H1733.01z"/>
		<path fill="#3A3A3A" d="M1762.759,192.179l5.631,1.786c-0.863,3.14-2.298,5.472-4.306,6.994c-2.008,1.525-4.557,2.288-7.644,2.288
			c-3.82,0-6.96-1.306-9.419-3.915c-2.461-2.609-3.69-6.178-3.69-10.704c0-4.788,1.237-8.507,3.709-11.156s5.723-3.974,9.754-3.974
			c3.52,0,6.377,1.04,8.574,3.12c1.309,1.229,2.29,2.996,2.944,5.298l-5.751,1.375c-0.341-1.492-1.048-2.67-2.129-3.533
			c-1.079-0.864-2.391-1.295-3.935-1.295c-2.131,0-3.862,0.765-5.189,2.296c-1.327,1.53-1.991,4.009-1.991,7.436
			c0,3.637,0.654,6.229,1.963,7.772c1.309,1.543,3.007,2.314,5.103,2.314c1.543,0,2.87-0.491,3.98-1.472
			C1761.477,195.828,1762.273,194.287,1762.759,192.179z"/>
		<path fill="#3A3A3A" d="M1773.376,202.756v-28.767h9.321c3.532,0,5.836,0.144,6.906,0.432c1.649,0.431,3.029,1.371,4.143,2.815
			c1.11,1.446,1.668,3.314,1.668,5.603c0,1.766-0.322,3.252-0.964,4.455c-0.641,1.205-1.453,2.149-2.442,2.836
			c-0.987,0.686-1.992,1.141-3.011,1.363c-1.388,0.275-3.396,0.413-6.025,0.413h-3.786v10.852H1773.376z M1779.186,178.856v8.163
			h3.179c2.288,0,3.82-0.15,4.591-0.451c0.773-0.301,1.377-0.772,1.815-1.413c0.438-0.641,0.657-1.386,0.657-2.237
			c0-1.046-0.307-1.91-0.921-2.591c-0.615-0.679-1.394-1.105-2.335-1.275c-0.694-0.131-2.087-0.195-4.182-0.195H1779.186z"/>
		<path fill="#3A3A3A" d="M1823.14,202.756h-6.318l-2.512-6.535h-11.501l-2.374,6.535h-6.161l11.205-28.767h6.143L1823.14,202.756z
			 M1812.444,191.375l-3.963-10.674l-3.887,10.674H1812.444z"/>
		<path fill="#3A3A3A" d="M1719.433,258.235l5.651-0.549c0.341,1.897,1.031,3.29,2.071,4.179c1.039,0.889,2.443,1.335,4.211,1.335
			c1.87,0,3.279-0.396,4.227-1.188c0.949-0.792,1.425-1.717,1.425-2.775c0-0.681-0.201-1.261-0.6-1.739
			c-0.4-0.478-1.098-0.892-2.089-1.245c-0.681-0.235-2.232-0.654-4.651-1.256c-3.113-0.773-5.298-1.72-6.554-2.847
			c-1.768-1.581-2.649-3.512-2.649-5.789c0-1.464,0.414-2.833,1.246-4.11c0.83-1.274,2.025-2.245,3.59-2.913
			c1.563-0.667,3.451-1.003,5.662-1.003c3.609,0,6.327,0.792,8.152,2.375c1.826,1.583,2.783,3.696,2.876,6.34l-5.81,0.253
			c-0.248-1.478-0.781-2.541-1.599-3.187c-0.818-0.649-2.045-0.971-3.681-0.971c-1.686,0-3.008,0.345-3.963,1.039
			c-0.614,0.443-0.923,1.04-0.923,1.786c0,0.678,0.287,1.261,0.865,1.747c0.73,0.615,2.512,1.256,5.337,1.921
			c2.826,0.667,4.915,1.359,6.269,2.071s2.414,1.688,3.18,2.923c0.765,1.238,1.147,2.765,1.147,4.583
			c0,1.649-0.457,3.192-1.372,4.63c-0.918,1.44-2.211,2.509-3.886,3.208c-1.676,0.702-3.763,1.05-6.262,1.05
			c-3.635,0-6.429-0.839-8.379-2.52C1720.977,263.904,1719.813,261.454,1719.433,258.235z"/>
		<path fill="#3A3A3A" d="M1746.533,253.388c0-2.931,0.438-5.39,1.314-7.379c0.654-1.464,1.549-2.778,2.681-3.941
			c1.129-1.167,2.369-2.029,3.717-2.591c1.792-0.76,3.86-1.14,6.2-1.14c4.24,0,7.63,1.317,10.176,3.944
			c2.544,2.63,3.815,6.287,3.815,10.97c0,4.644-1.262,8.279-3.786,10.901c-2.525,2.623-5.899,3.934-10.126,3.934
			c-4.276,0-7.68-1.306-10.205-3.916C1747.795,261.562,1746.533,257.968,1746.533,253.388z M1752.518,253.193
			c0,3.256,0.754,5.725,2.258,7.406c1.504,1.684,3.414,2.522,5.73,2.522c2.314,0,4.214-0.834,5.699-2.501
			c1.485-1.667,2.227-4.171,2.227-7.506c0-3.298-0.723-5.757-2.166-7.379c-1.446-1.62-3.366-2.433-5.76-2.433
			c-2.396,0-4.324,0.821-5.791,2.464C1753.251,247.407,1752.518,249.882,1752.518,253.193z"/>
		<path fill="#3A3A3A" d="M1797.377,257.019l5.63,1.786c-0.863,3.14-2.298,5.472-4.306,6.994c-2.008,1.525-4.557,2.288-7.644,2.288
			c-3.82,0-6.96-1.306-9.419-3.916c-2.461-2.609-3.69-6.176-3.69-10.704c0-4.789,1.237-8.506,3.709-11.157
			c2.473-2.649,5.723-3.974,9.754-3.974c3.52,0,6.377,1.042,8.574,3.122c1.309,1.229,2.29,2.994,2.944,5.297l-5.751,1.375
			c-0.341-1.493-1.048-2.67-2.129-3.533c-1.079-0.863-2.391-1.295-3.934-1.295c-2.132,0-3.863,0.765-5.19,2.295
			c-1.326,1.53-1.991,4.01-1.991,7.438c0,3.638,0.654,6.229,1.963,7.772s3.008,2.314,5.103,2.314c1.543,0,2.87-0.491,3.98-1.472
			C1796.094,260.667,1796.891,259.124,1797.377,257.019z"/>
		<path fill="#3A3A3A" d="M1720.335,276.236l-1.681-0.303c0.19-0.678,0.515-1.179,0.977-1.504c0.462-0.324,1.147-0.488,2.058-0.488
			c0.826,0,1.443,0.098,1.847,0.293c0.404,0.195,0.688,0.446,0.855,0.747c0.163,0.301,0.245,0.853,0.245,1.66l-0.019,2.164
			c0,0.615,0.029,1.068,0.09,1.361c0.058,0.293,0.169,0.604,0.332,0.939h-1.834c-0.047-0.124-0.107-0.306-0.179-0.549
			c-0.029-0.108-0.053-0.182-0.063-0.216c-0.316,0.309-0.657,0.539-1.019,0.692c-0.358,0.155-0.744,0.231-1.153,0.231
			c-0.72,0-1.29-0.195-1.704-0.585c-0.417-0.394-0.625-0.887-0.625-1.486c0-0.396,0.095-0.75,0.285-1.058
			c0.189-0.311,0.453-0.549,0.794-0.712c0.34-0.166,0.834-0.309,1.475-0.433c0.865-0.164,1.467-0.314,1.8-0.454v-0.185
			c0-0.359-0.087-0.612-0.265-0.763c-0.174-0.153-0.506-0.229-0.994-0.229c-0.33,0-0.588,0.066-0.773,0.195
			C1720.599,275.682,1720.451,275.912,1720.335,276.236z M1722.815,277.74c-0.237,0.079-0.612,0.174-1.127,0.282
			c-0.515,0.111-0.853,0.219-1.011,0.325c-0.24,0.171-0.361,0.388-0.361,0.652c0,0.261,0.098,0.485,0.29,0.675
			c0.193,0.187,0.441,0.282,0.739,0.282c0.335,0,0.651-0.111,0.958-0.33c0.222-0.167,0.369-0.372,0.44-0.612
			c0.047-0.158,0.071-0.462,0.071-0.905V277.74z"/>
		<path fill="#3A3A3A" d="M1726.467,273.149v-1.715h1.852v1.715H1726.467z M1726.467,281.104v-7.004h1.852v7.004H1726.467z"/>
		<path fill="#3A3A3A" d="M1736.323,276.17l-1.825,0.33c-0.062-0.364-0.201-0.641-0.42-0.826c-0.217-0.185-0.499-0.274-0.847-0.274
			c-0.462,0-0.831,0.159-1.105,0.478c-0.274,0.319-0.412,0.853-0.412,1.599c0,0.831,0.14,1.417,0.42,1.76
			c0.279,0.343,0.654,0.517,1.124,0.517c0.351,0,0.639-0.1,0.865-0.301c0.222-0.201,0.38-0.543,0.475-1.034l1.82,0.311
			c-0.189,0.836-0.554,1.467-1.09,1.894c-0.535,0.425-1.256,0.639-2.155,0.639c-1.026,0-1.841-0.321-2.451-0.971
			c-0.609-0.644-0.915-1.541-0.915-2.683c0-1.156,0.306-2.058,0.918-2.702s1.438-0.966,2.48-0.966c0.852,0,1.53,0.185,2.034,0.552
			S1736.104,275.418,1736.323,276.17z"/>
		<path fill="#3A3A3A" d="M1737.68,274.099h1.725v1.029c0.228-0.351,0.528-0.639,0.913-0.857c0.38-0.219,0.805-0.33,1.272-0.33
			c0.813,0,1.503,0.319,2.07,0.958c0.567,0.636,0.853,1.525,0.853,2.665c0,1.169-0.288,2.077-0.86,2.726
			c-0.569,0.649-1.264,0.973-2.076,0.973c-0.388,0-0.738-0.076-1.053-0.231c-0.314-0.153-0.644-0.417-0.992-0.792v3.53h-1.852
			V274.099z M1739.511,277.484c0,0.786,0.158,1.367,0.47,1.744c0.311,0.375,0.69,0.562,1.14,0.562c0.433,0,0.791-0.172,1.076-0.518
			c0.285-0.345,0.427-0.91,0.427-1.699c0-0.733-0.145-1.277-0.44-1.636c-0.295-0.354-0.659-0.533-1.095-0.533
			c-0.453,0-0.828,0.174-1.129,0.525C1739.661,276.278,1739.511,276.798,1739.511,277.484z"/>
		<path fill="#3A3A3A" d="M1747.364,276.236l-1.681-0.303c0.19-0.678,0.515-1.179,0.977-1.504c0.462-0.324,1.147-0.488,2.058-0.488
			c0.826,0,1.443,0.098,1.847,0.293c0.404,0.195,0.689,0.446,0.855,0.747c0.163,0.301,0.245,0.853,0.245,1.66l-0.019,2.164
			c0,0.615,0.029,1.068,0.09,1.361c0.058,0.293,0.169,0.604,0.332,0.939h-1.833c-0.048-0.124-0.108-0.306-0.18-0.549
			c-0.029-0.108-0.053-0.182-0.063-0.216c-0.316,0.309-0.656,0.539-1.019,0.692c-0.358,0.155-0.743,0.231-1.152,0.231
			c-0.721,0-1.29-0.195-1.704-0.585c-0.417-0.394-0.626-0.887-0.626-1.486c0-0.396,0.095-0.75,0.285-1.058
			c0.19-0.311,0.454-0.549,0.794-0.712c0.341-0.166,0.834-0.309,1.475-0.433c0.865-0.164,1.467-0.314,1.8-0.454v-0.185
			c0-0.359-0.087-0.612-0.264-0.763c-0.175-0.153-0.507-0.229-0.995-0.229c-0.33,0-0.588,0.066-0.772,0.195
			S1747.48,275.912,1747.364,276.236z M1749.845,277.74c-0.237,0.079-0.612,0.174-1.127,0.282c-0.515,0.111-0.852,0.219-1.01,0.325
			c-0.24,0.171-0.362,0.388-0.362,0.652c0,0.261,0.098,0.485,0.291,0.675c0.192,0.187,0.44,0.282,0.738,0.282
			c0.335,0,0.651-0.111,0.958-0.33c0.222-0.167,0.369-0.372,0.44-0.612c0.048-0.158,0.071-0.462,0.071-0.905V277.74z"/>
		<path fill="#3A3A3A" d="M1753.493,281.104v-1.852h1.853v1.852H1753.493z"/>
		<path fill="#3A3A3A" d="M1756.817,277.502c0-0.615,0.15-1.211,0.457-1.786c0.301-0.578,0.73-1.019,1.287-1.319
			c0.557-0.306,1.177-0.457,1.862-0.457c1.061,0,1.929,0.343,2.607,1.032c0.678,0.688,1.016,1.559,1.016,2.609
			c0,1.061-0.343,1.939-1.026,2.636s-1.544,1.044-2.58,1.044c-0.645,0-1.256-0.145-1.839-0.435
			c-0.583-0.291-1.026-0.715-1.327-1.277C1756.968,278.99,1756.817,278.307,1756.817,277.502z M1758.717,277.6
			c0,0.696,0.167,1.229,0.494,1.599c0.332,0.37,0.738,0.554,1.222,0.554c0.482,0,0.889-0.185,1.216-0.554
			c0.327-0.369,0.49-0.908,0.49-1.609c0-0.686-0.163-1.213-0.49-1.583c-0.327-0.369-0.733-0.554-1.216-0.554
			c-0.483,0-0.89,0.185-1.222,0.554C1758.884,276.376,1758.717,276.906,1758.717,277.6z"/>
		<path fill="#3A3A3A" d="M1767.271,281.104h-1.852v-7.004h1.72v0.995c0.296-0.47,0.56-0.778,0.794-0.929
			c0.235-0.15,0.504-0.225,0.803-0.225c0.422,0,0.828,0.116,1.221,0.351l-0.575,1.615c-0.311-0.203-0.602-0.303-0.87-0.303
			c-0.259,0-0.48,0.071-0.659,0.213c-0.18,0.143-0.322,0.401-0.425,0.776c-0.104,0.375-0.156,1.155-0.156,2.348V281.104z"/>
		<path fill="#3A3A3A" d="M1770.582,281.565l2.118,0.256c0.034,0.248,0.116,0.417,0.245,0.509c0.175,0.133,0.451,0.198,0.829,0.198
			c0.485,0,0.847-0.074,1.089-0.216c0.164-0.098,0.285-0.254,0.37-0.47c0.058-0.153,0.087-0.438,0.087-0.85v-1.024
			c-0.555,0.757-1.256,1.134-2.101,1.134c-0.938,0-1.686-0.398-2.234-1.192c-0.43-0.63-0.646-1.414-0.646-2.348
			c0-1.177,0.282-2.074,0.847-2.691c0.565-0.623,1.27-0.932,2.108-0.932c0.865,0,1.58,0.38,2.143,1.143v-0.984h1.735v6.287
			c0,0.826-0.068,1.443-0.205,1.852c-0.135,0.409-0.327,0.73-0.573,0.963c-0.245,0.232-0.575,0.414-0.986,0.546
			s-0.932,0.201-1.56,0.201c-1.187,0-2.028-0.206-2.527-0.612c-0.496-0.406-0.744-0.921-0.744-1.546
			C1770.576,281.729,1770.579,281.652,1770.582,281.565z M1772.238,277.458c0,0.741,0.146,1.285,0.433,1.63
			c0.288,0.346,0.645,0.517,1.066,0.517c0.451,0,0.834-0.177,1.145-0.53c0.314-0.354,0.47-0.878,0.47-1.572
			c0-0.726-0.15-1.264-0.448-1.617c-0.298-0.351-0.678-0.528-1.135-0.528c-0.443,0-0.81,0.174-1.098,0.52
			C1772.384,276.223,1772.238,276.748,1772.238,277.458z"/>
		<path fill="#3A3A3A" d="M1778.014,281.268l2.396-10h1.394l-2.422,10H1778.014z"/>
		<path fill="#3A3A3A" d="M1782.105,279.104l1.86-0.282c0.079,0.361,0.24,0.633,0.483,0.82c0.239,0.188,0.58,0.28,1.013,0.28
			c0.48,0,0.842-0.087,1.082-0.264c0.163-0.121,0.245-0.288,0.245-0.493c0-0.14-0.045-0.256-0.132-0.351
			c-0.093-0.087-0.298-0.168-0.62-0.243c-1.496-0.33-2.443-0.63-2.844-0.902c-0.555-0.38-0.829-0.905-0.829-1.578
			c0-0.607,0.237-1.116,0.718-1.53c0.48-0.414,1.222-0.62,2.229-0.62c0.958,0,1.67,0.156,2.137,0.467
			c0.467,0.314,0.786,0.775,0.963,1.388l-1.746,0.322c-0.076-0.271-0.219-0.48-0.428-0.628c-0.208-0.143-0.507-0.216-0.892-0.216
			c-0.49,0-0.839,0.069-1.05,0.206c-0.14,0.095-0.211,0.221-0.211,0.375c0,0.132,0.061,0.243,0.185,0.338
			c0.166,0.121,0.744,0.295,1.73,0.52s1.678,0.499,2.068,0.826c0.388,0.327,0.58,0.789,0.58,1.377c0,0.641-0.269,1.192-0.805,1.656
			c-0.535,0.46-1.329,0.691-2.382,0.691c-0.952,0-1.707-0.192-2.264-0.58S1782.277,279.769,1782.105,279.104z"/>
		<path fill="#3A3A3A" d="M1789.842,277.502c0-0.615,0.15-1.211,0.456-1.786c0.301-0.578,0.73-1.019,1.287-1.319
			c0.558-0.306,1.177-0.457,1.863-0.457c1.061,0,1.929,0.343,2.606,1.032s1.016,1.559,1.016,2.609c0,1.061-0.343,1.939-1.026,2.636
			s-1.543,1.044-2.58,1.044c-0.644,0-1.256-0.145-1.839-0.435c-0.583-0.291-1.026-0.715-1.327-1.277
			C1789.992,278.99,1789.842,278.307,1789.842,277.502z M1791.741,277.6c0,0.696,0.166,1.229,0.493,1.599
			c0.332,0.37,0.738,0.554,1.222,0.554c0.482,0,0.889-0.185,1.216-0.554c0.327-0.369,0.491-0.908,0.491-1.609
			c0-0.686-0.164-1.213-0.491-1.583c-0.327-0.369-0.733-0.554-1.216-0.554c-0.483,0-0.89,0.185-1.222,0.554
			C1791.907,276.376,1791.741,276.906,1791.741,277.6z"/>
		<path fill="#3A3A3A" d="M1804.629,276.17l-1.825,0.33c-0.061-0.364-0.201-0.641-0.42-0.826c-0.216-0.185-0.498-0.274-0.847-0.274
			c-0.462,0-0.831,0.159-1.105,0.478c-0.274,0.319-0.411,0.853-0.411,1.599c0,0.831,0.14,1.417,0.419,1.76
			c0.279,0.343,0.654,0.517,1.124,0.517c0.351,0,0.639-0.1,0.865-0.301c0.222-0.201,0.38-0.543,0.475-1.034l1.821,0.311
			c-0.19,0.836-0.555,1.467-1.09,1.894c-0.536,0.425-1.256,0.639-2.155,0.639c-1.026,0-1.842-0.321-2.451-0.971
			c-0.609-0.644-0.916-1.541-0.916-2.683c0-1.156,0.307-2.058,0.918-2.702c0.612-0.644,1.438-0.966,2.48-0.966
			c0.853,0,1.53,0.185,2.034,0.552S1804.41,275.418,1804.629,276.17z"/>
	</g>
	<rect x="1895.363" y="241.724" fill="#3A3A3A" width="245.174" height="5.403"/>
	<rect x="1895.363" y="301.16" fill="#3A3A3A" width="245.174" height="5.403"/>
	<path fill="#3A3A3A" d="M1866.799,222.491c0,59.309-48.081,107.39-107.391,107.39c-59.309,0-107.39-48.081-107.39-107.39
		s48.081-107.388,107.39-107.388C1818.718,115.103,1866.799,163.182,1866.799,222.491z M1759.408,142.794
		c-44.015,0-79.698,35.682-79.698,79.697c0,44.018,35.684,79.699,79.698,79.699c44.016,0,79.698-35.681,79.698-79.699
		C1839.106,178.476,1803.424,142.794,1759.408,142.794z"/>
	<rect x="1640.537" y="214.048" fill="#3A3A3A" width="234.366" height="16.885"/>
</g>
</svg>
